<?xml version="1.0" encoding="UTF-8"?>
<!DOCTYPE svg PUBLIC "-//W3C//DTD SVG 1.1//EN" "http://www.w3.org/Graphics/SVG/1.1/DTD/svg11.dtd">
<!-- Creator: CorelDRAW -->
<svg xmlns="http://www.w3.org/2000/svg" xml:space="preserve" width="210mm" height="210mm" style="shape-rendering:geometricPrecision; text-rendering:geometricPrecision; image-rendering:optimizeQuality; fill-rule:evenodd; clip-rule:evenodd"
viewBox="0 0 210 210"
 xmlns:xlink="http://www.w3.org/1999/xlink">
 <defs>
  <style type="text/css">
   <![CDATA[
    .str0 {stroke:white;stroke-width:1.491}
    .fil2 {fill:none}
    .fil0 {fill:#0089CC}
    .fil1 {fill:white}
   ]]>
  </style>
 </defs>
 <g id="Слой_x0020_1">
  <metadata id="CorelCorpID_0Corel-Layer"/>
  <path class="fil0" d="M105 1.2705c56.9506,0 103.4,46.4492 103.4,103.401 0,56.9503 -46.4496,103.4 -103.4,103.4 -56.9507,0 -103.4,-46.4492 -103.4,-103.4 0,-56.9514 46.4495,-103.401 103.4,-103.401l0 0z"/>
  <path class="fil1" d="M66.0956 117.637l0 -27.4265 17.8407 0 0 4.7609 -12.527 0 0 6.2541 10.9419 0 0 4.7609 -10.9419 0 0 11.6506 -5.3137 0zm49.0923 -18.3229c-0.2213,-0.9837 -0.473,-1.7392 -0.7543,-2.2542 -0.5012,-0.8766 -1.2006,-1.5544 -2.1108,-2.0311 -0.9033,-0.4756 -1.9323,-0.7101 -3.0913,-0.7101 -1.8024,0 -3.2617,0.6088 -4.3804,1.8335 -0.8147,0.9146 -1.449,2.0571 -1.903,3.4286 -0.4548,1.3722 -0.6827,2.8198 -0.6827,4.3361 0,1.5234 0.2279,2.9841 0.6827,4.3812 0.4488,1.4041 1.0594,2.5202 1.8313,3.3594 1.1183,1.2255 2.6131,1.8339 4.4862,1.8339 2.0281,0 3.5854,-0.7112 4.6606,-2.1405 0.5209,-0.672 0.9647,-1.7197 1.3323,-3.1208l5.2072 0c-0.2103,1.7373 -0.5557,3.1344 -1.0473,4.1883 -0.5879,1.2486 -1.3766,2.3238 -2.3691,3.2131 -0.9995,0.8875 -2.1657,1.569 -3.5054,2.0307 -1.3466,0.4617 -2.7942,0.6976 -4.3493,0.6976 -1.82,0 -3.482,-0.3405 -5.0016,-1.0199 -1.5193,-0.6885 -2.8308,-1.6649 -3.9195,-2.9339 -1.0942,-1.276 -1.9316,-2.8056 -2.518,-4.5915 -0.5809,-1.7838 -0.8736,-3.7505 -0.8736,-5.8976 0,-2.1704 0.2927,-4.1455 0.8736,-5.9351 0.5864,-1.7911 1.4289,-3.3214 2.5363,-4.5905 1.1,-1.2701 2.4225,-2.248 3.9542,-2.9277 1.5383,-0.6793 3.2431,-1.0155 5.1198,-1.0155 1.1026,0 2.1496,0.1138 3.1425,0.3362 0.999,0.222 1.9253,0.5582 2.7759,1.0031 0.8575,0.4448 1.5844,0.9778 2.2022,1.588 0.8067,0.7811 1.4403,1.6956 1.9023,2.7419 0.4778,1.0101 0.8254,2.4072 1.0401,4.1968l-5.2409 0zm20.3767 18.3229l0 -27.4265 5.3118 0 0 27.4265 -5.3118 0z"/>
  <path class="fil2 str0" d="M35.4085 84.2996l137.576 0c4.1112,13.1643 4.7152,26.1432 -0.1946,38.8249l-137.381 0c-5.0133,-12.9558 -4.4067,-25.9119 0,-38.8249l0 0zm53.1962 -0.0798c1.7933,-29.9686 7.3871,-51.9955 13.9991,-51.9955 6.5886,0 12.1817,21.9237 14.0068,51.8401m0.1325 39.0601c-1.6697,31.0424 -7.3861,54.0669 -14.1393,54.0669 -6.7623,0 -12.4465,-23.0798 -14.1184,-54.1601m60.628 0.0932c-5.4399,31.0607 -24.2548,54.0669 -46.5096,54.0669 -22.2943,0 -41.0923,-23.0567 -46.5117,-54.1601m-11.7738 22.5101l118.952 0m-117.247 -84.0088l115.377 0m-104.871 22.5087c5.9304,-29.8933 24.3396,-51.817 46.0753,-51.817 21.7606,0 40.2462,22.0466 46.1229,52.0885m-44.7514 -51.8756c39.7963,0 72.2492,32.4625 72.2492,72.2617 0,39.8021 -32.4529,72.2591 -72.2492,72.2591 -39.794,0 -72.2543,-32.457 -72.2543,-72.2591 0,-39.7992 32.4603,-72.2617 72.2543,-72.2617l0 0zm1.024 -23.3599c52.6386,0 95.578,42.9409 95.578,95.592 0,52.6529 -42.9394,95.5945 -95.578,95.5945 -52.6434,0 -95.5777,-42.9416 -95.5777,-95.5945 0,-52.6511 42.9343,-95.592 95.5777,-95.592l0 0z"/>
  <polygon class="fil1" points="95.9776,184.024 113.834,184.024 113.834,187.001 95.9776,187.001 "/>
  <polygon class="fil1" points="95.9776,189.551 113.834,189.551 113.834,192.528 95.9776,192.528 "/>
  <path class="fil1" d="M74.2053 175.344l-6.1569 11.5774 -7.9911 -4.2513 1.0689 -2.0102 5.6122 2.9844 1.4048 -2.6387 -4.9036 -2.6091 1.069 -2.0077 4.9021 2.6069 2.6138 -4.9185 2.3808 1.2668zm-17.349 -10.5965l7.8485 5.7029 -7.7073 10.6075 -7.584 -5.5105 1.3291 -1.8273 5.4036 3.9261 1.6561 -2.2817 -4.9328 -3.5833 1.3162 -1.8134 4.9332 3.5855 2.0147 -2.7737 -5.6689 -4.1185 1.3916 -1.9136zm-10.7374 8.0742l-3.9041 -3.771c-0.8824,-0.8527 -1.4553,-1.7512 -1.722,-2.7049 -0.2652,-0.9494 -0.2166,-1.9279 0.1496,-2.9318 0.364,-1.0038 1.0324,-2.0098 2.0007,-3.0137 0.9783,-1.0107 1.974,-1.715 2.9867,-2.1038 1.0155,-0.3907 2.0212,-0.4573 3.0158,-0.2056 0.9977,0.2582 1.955,0.8297 2.8736,1.7172l3.7084 3.5789 -9.1087 9.4347zm5.5254 -9.6019l-1.52 -1.4685c-0.6149,-0.5944 -1.2164,-0.9668 -1.7962,-1.1179 -0.5817,-0.1533 -1.1845,-0.0845 -1.8024,0.2034 -0.6165,0.2904 -1.2815,0.8052 -1.9931,1.5412 -1.9136,1.9806 -2.0888,3.7274 -0.5253,5.2368l1.7545 1.6945 5.8825 -6.0895zm-11.364 -17.0516l5.5668 7.9483 -10.7429 7.5207 -5.3763 -7.6784 1.8508 -1.2965 3.8309 5.4717 2.3095 -1.6162 -3.497 -4.9943 1.8347 -1.2877 3.498 4.9965 2.8059 -1.9642 -4.0193 -5.742 1.9389 -1.3579zm-4.8937 -8.8063c-0.3154,0.3176 -0.5663,0.5422 -0.7562,0.6768 -0.191,0.1328 -0.5129,0.3157 -0.9702,0.5466l-0.3731 0.1898c-0.8685,0.4434 -1.403,0.8802 -1.6064,1.3104 -0.2008,0.4251 -0.1306,0.9761 0.2126,1.651l1.2965 2.5451 4.5432 -2.3142 1.2241 2.4009 -11.6828 5.952 -2.8867 -5.6641c-0.4021,-0.7887 -0.6223,-1.5295 -0.6603,-2.2246 -0.0363,-0.6951 0.1093,-1.3104 0.4404,-1.8456 0.3311,-0.5392 0.829,-0.9786 1.4999,-1.3196 0.6333,-0.3244 1.1875,-0.4913 1.6671,-0.5004 0.3662,-0.0231 0.7353,0.0501 1.1099,0.2081 0.2762,0.1167 0.5027,0.2444 0.6731,0.3933 0.1734,0.1511 0.3871,0.3955 0.6355,0.7386 -0.1255,-0.3823 -0.1979,-0.6837 -0.2144,-0.9193 -0.0172,-0.2334 0.0143,-0.4847 0.0981,-0.7547 0.0588,-0.1851 0.1551,-0.3655 0.2809,-0.5327 0.1628,-0.2103 0.3314,-0.3885 0.4964,-0.533 0.1716,-0.1463 0.4222,-0.3175 0.7503,-0.5096 0.3278,-0.1898 0.7818,-0.4393 1.3661,-0.7364 0.4375,-0.2337 0.7305,-0.4302 0.882,-0.5857 0.1496,-0.1551 0.2418,-0.361 0.2769,-0.6219l0.3567 -0.1803 1.3404 2.6295zm-4.2257 7.9531l-1.4384 -2.8216c-0.611,-1.2006 -1.4297,-1.539 -2.4584,-1.0155 -0.4986,0.2539 -0.8078,0.5944 -0.931,1.0221 -0.1197,0.4298 -0.0428,0.9149 0.2323,1.4545l1.498 2.9406 3.0975 -1.5801zm-11.7453 -11.795l-0.9621 -2.9566 11.2174 -8.6255 0.8941 2.7558 -2.2824 1.6989 1.5697 4.8318 2.8268 -0.023 0.8571 2.6365 -14.1206 -0.3179zm1.8979 -2.0687l6.2294 -0.2038 -1.125 -3.4644 -5.1044 3.6682zm7.9059 -13.5927l-10.6163 1.873 0.6742 3.8233 -2.2974 0.4046 -1.8145 -10.2944 2.2974 -0.4046 0.6728 3.8163 10.6159 -1.8727 0.4679 2.6545zm-1.0448 -7.873l-13.1109 0.229 -0.0472 -2.694 13.1109 -0.2283 0.0472 2.6933zm-13.2481 -12.2919c0.0886,-0.9976 0.3238,-1.8843 0.7097,-2.6617 0.3842,-0.7778 0.9018,-1.4231 1.5504,-1.9389 0.6508,-0.5166 1.4136,-0.8849 2.2956,-1.1107 0.8805,-0.2242 1.8522,-0.2908 2.9061,-0.2001 1.0448,0.0929 1.9784,0.3238 2.7968,0.6944 0.8246,0.3702 1.5127,0.867 2.0695,1.4816 0.5531,0.6197 0.9537,1.3316 1.2054,2.1474 0.2491,0.8136 0.3325,1.7018 0.2491,2.6632 -0.0834,0.9636 -0.3201,1.8248 -0.7137,2.5809 -0.3885,0.7562 -0.9109,1.3894 -1.5636,1.8994 -0.6552,0.5133 -1.4179,0.8776 -2.2944,1.1022 -0.8718,0.2265 -1.8281,0.2949 -2.867,0.2034 -1.0123,-0.0877 -1.929,-0.3204 -2.7602,-0.695 -0.8257,-0.3743 -1.5171,-0.8626 -2.0797,-1.4699 -0.5587,-0.6077 -0.9709,-1.3101 -1.2318,-2.1105 -0.2623,-0.796 -0.3519,-1.6594 -0.2722,-2.5857l0 0zm6.5824 4.1401c0.6866,0.0607 1.3184,0.0278 1.895,-0.0955 0.5776,-0.124 1.0792,-0.3292 1.5108,-0.6182 0.4295,-0.2861 0.7697,-0.6475 1.0236,-1.0759 0.2503,-0.4328 0.401,-0.9186 0.4478,-1.4611 0.0666,-0.7573 -0.0611,-1.4297 -0.3808,-2.0161 -0.3209,-0.5861 -0.8173,-1.0554 -1.49,-1.411 -0.6695,-0.3519 -1.4816,-0.5733 -2.4335,-0.6559 -0.694,-0.0604 -1.3203,-0.03 -1.8892,0.0911 -0.5644,0.1251 -1.0612,0.3285 -1.486,0.6189 -0.424,0.2879 -0.7569,0.6497 -1.0038,1.0854 -0.2466,0.4328 -0.3936,0.9322 -0.4423,1.4893 -0.0483,0.5513 0.0136,1.0598 0.1899,1.5263 0.1734,0.469 0.4478,0.8802 0.8198,1.2339 0.3732,0.3585 0.837,0.6464 1.3847,0.8688 0.5502,0.2214 1.1681,0.3608 1.854,0.42l0 0zm-5.0228 -15.2594l0.9233 -3.22 11.892 -2.0227 0.0351 -0.1266 -0.6771 -0.136 -9.7896 -2.8078 0.6036 -2.1024 12.6035 3.6133 -0.9383 3.2763 -11.6919 2.0611 -0.0212 0.0728 0.623 0.1361 9.6462 2.7668 -0.6044 2.1027 -12.6042 -3.6136zm15.0655 -26.0096c-0.4635,-0.1376 -0.8363,-0.2064 -1.1224,-0.2045 -0.4931,0.0087 -0.9486,0.1562 -1.3755,0.4419 -0.4265,0.2842 -0.7847,0.6786 -1.0792,1.1882 -0.4573,0.7913 -0.574,1.5796 -0.3556,2.3618 0.176,0.5765 0.4895,1.1289 0.9413,1.6561 0.4529,0.5282 0.9896,0.9716 1.6188,1.3345 0.6285,0.3629 1.2925,0.6139 1.9876,0.7478 0.6936,0.1375 1.3118,0.1375 1.854,0 0.7894,-0.2009 1.4212,-0.713 1.8968,-1.5358 0.5143,-0.8897 0.6146,-1.7431 0.2956,-2.5582 -0.1471,-0.3907 -0.4661,-0.8337 -0.9548,-1.3335l1.3191 -2.2867c0.6717,0.5092 1.1623,0.9961 1.4729,1.4636 0.3687,0.5565 0.612,1.1608 0.7291,1.8091 0.1152,0.6493 0.0995,1.325 -0.0487,2.0252 -0.1485,0.7035 -0.4192,1.3956 -0.814,2.0768 -0.4616,0.8008 -1.0246,1.4505 -1.6919,1.9542 -0.6695,0.5041 -1.407,0.8458 -2.2078,1.0222 -0.8059,0.1759 -1.6513,0.1759 -2.5399,0.0073 -0.885,-0.1716 -1.775,-0.5129 -2.6633,-1.0262 -0.8984,-0.5176 -1.6407,-1.1187 -2.2363,-1.8024 -0.5926,-0.6859 -1.0111,-1.4209 -1.2573,-2.2107 -0.2459,-0.7876 -0.3161,-1.6034 -0.2082,-2.4383 0.1083,-0.837 0.4006,-1.6674 0.8784,-2.4931 0.2787,-0.4825 0.5915,-0.9156 0.9347,-1.2983 0.3464,-0.3856 0.7214,-0.7137 1.1201,-0.9811 0.4017,-0.27 0.8071,-0.461 1.2168,-0.5861 0.5301,-0.1672 1.0704,-0.2279 1.6217,-0.1793 0.5345,0.0289 1.2006,0.21 1.9981,0.5437l-1.3301 2.3018zm12.2318 -2.4489l-3.7925 -3.07 -9.3777 -1.5018 2.1767 -2.6906 6.5568 1.7479 -3.1641 -5.9356 1.8343 -2.2652 3.6714 8.5483 3.7911 3.0715 -1.696 2.0955zm-3.5997 -15.9369l2.4492 -2.2846 11.2342 4.391 0.0955 -0.0896 -0.51 -0.4661 -6.9452 -7.4479 1.6001 -1.4926 8.9441 9.5899 -2.4938 2.3248 -11.0824 -4.2575 -0.056 0.053 0.4632 0.4376 6.8442 7.3392 -1.6001 1.4926 -8.943 -9.5898zm16.6459 -13.9352c0.8483,-0.5315 1.6989,-0.8768 2.552,-1.0371 0.8513,-0.1598 1.6777,-0.1353 2.481,0.0714 0.8049,0.211 1.5577,0.5963 2.2682,1.1662 0.7097,0.5678 1.347,1.302 1.9089,2.2001 0.5538,0.889 0.9328,1.7732 1.1296,2.6504 0.2005,0.8828 0.2174,1.7297 0.0608,2.5451 -0.1606,0.8143 -0.4888,1.5643 -0.9885,2.255 -0.4997,0.6892 -1.1586,1.2906 -1.9769,1.8024 -0.8217,0.5125 -1.6506,0.841 -2.492,0.9837 -0.8371,0.143 -1.6576,0.1072 -2.4584,-0.1061 -0.8023,-0.2147 -1.5522,-0.6043 -2.2605,-1.1695 -0.7045,-0.5601 -1.3352,-1.2826 -1.8873,-2.1665 -0.5385,-0.863 -0.9047,-1.7358 -1.1048,-2.6241 -0.199,-0.8849 -0.225,-1.731 -0.0797,-2.5447 0.1492,-0.8128 0.4635,-1.5639 0.9453,-2.2549 0.4763,-0.6889 1.1139,-1.2797 1.9023,-1.7714l0 0zm0.6526 7.7483c0.3651,0.5838 0.773,1.0675 1.2182,1.4542 0.4463,0.387 0.9124,0.6639 1.4026,0.8351 0.4869,0.1698 0.9793,0.225 1.4754,0.1698 0.4968,-0.0604 0.9753,-0.2338 1.4348,-0.5217 0.6457,-0.4024 1.107,-0.9098 1.3817,-1.5189 0.2751,-0.6069 0.3527,-1.2859 0.2308,-2.0377 -0.121,-0.7452 -0.4342,-1.5273 -0.9416,-2.3398 -0.3684,-0.5886 -0.769,-1.0701 -1.2094,-1.4512 -0.439,-0.3769 -0.9003,-0.6512 -1.3876,-0.8155 -0.4862,-0.1653 -0.9735,-0.214 -1.4717,-0.1503 -0.4935,0.0651 -0.9812,0.2476 -1.456,0.5447 -0.4676,0.2937 -0.8367,0.649 -1.1041,1.0693 -0.2696,0.4225 -0.4328,0.8886 -0.4917,1.3989 -0.0622,0.5144 -0.0128,1.0565 0.1398,1.6269 0.1544,0.5747 0.4145,1.1516 0.7788,1.7362l0 0zm8.6987 -12.5904l2.4609 -1.0963 4.3475 9.7643 5.6411 -2.5114 0.9848 2.2154 -8.1016 3.6075 -5.3327 -11.9795zm17.2605 -6.5593c0.9753,-0.2264 1.892,-0.2751 2.7499,-0.1488 0.8597,0.1258 1.6327,0.4174 2.3234,0.8743 0.6921,0.462 1.2793,1.0715 1.7655,1.8419 0.4862,0.7664 0.8509,1.67 1.0876,2.7009 0.2367,1.0222 0.3051,1.9821 0.2067,2.8743 -0.0992,0.8989 -0.3571,1.7066 -0.7716,2.4251 -0.4181,0.7181 -0.9716,1.3214 -1.6689,1.8109 -0.6969,0.4898 -1.5174,0.8436 -2.455,1.0601 -0.9446,0.2192 -1.8361,0.258 -2.6768,0.1189 -0.8388,-0.1371 -1.6034,-0.436 -2.2901,-0.8992 -0.6892,-0.4649 -1.2723,-1.0784 -1.7567,-1.8415 -0.484,-0.7599 -0.8454,-1.6492 -1.0792,-2.6633 -0.2294,-0.9921 -0.2916,-1.9356 -0.192,-2.8414 0.1009,-0.9014 0.3522,-1.7091 0.755,-2.4324 0.4035,-0.7192 0.9472,-1.3268 1.6261,-1.8247 0.6761,-0.495 1.4718,-0.8473 2.3761,-1.0551l0 0zm-1.9034 7.5383c0.1547,0.6713 0.3812,1.2617 0.6771,1.7735 0.2945,0.5089 0.6464,0.9234 1.0536,1.2439 0.4053,0.3219 0.8528,0.5326 1.3408,0.642 0.4887,0.105 0.9976,0.0973 1.5273,-0.0256 0.7412,-0.1716 1.3404,-0.5001 1.7991,-0.9856 0.4588,-0.4858 0.7515,-1.1022 0.8821,-1.8522 0.1273,-0.7455 0.087,-1.5869 -0.1284,-2.5194 -0.157,-0.6772 -0.3787,-1.2629 -0.6717,-1.7659 -0.2927,-0.499 -0.6387,-0.9091 -1.0459,-1.2233 -0.4061,-0.3146 -0.8517,-0.518 -1.3422,-0.6201 -0.4877,-0.0995 -1.0083,-0.0848 -1.5533,0.0414 -0.5389,0.1247 -1.0039,0.3395 -1.3927,0.6511 -0.3933,0.3099 -0.6999,0.6984 -0.9212,1.1619 -0.2246,0.4661 -0.3552,0.9962 -0.398,1.5848 -0.041,0.5926 0.0183,1.2226 0.1734,1.8935l0 0zm22.7464 1.4073c-0.0958,0.1672 -0.1609,0.2799 -0.1931,0.3329 -0.0304,0.0549 -0.0805,0.138 -0.1485,0.255 -0.2554,0.3995 -0.5543,0.7335 -0.9004,1.0006 -0.3479,0.2685 -0.7437,0.4755 -1.1969,0.6222 -0.4526,0.1449 -0.979,0.2404 -1.5848,0.2828 -1.1692,0.0801 -2.2272,-0.1364 -3.171,-0.6533 -0.9471,-0.5173 -1.7059,-1.287 -2.2755,-2.3135 -0.571,-1.0284 -0.905,-2.2246 -1.0001,-3.5943 -0.0699,-1.0064 0.0164,-1.9389 0.2575,-2.792 0.2411,-0.852 0.6216,-1.5939 1.1451,-2.233 0.522,-0.6398 1.1626,-1.1436 1.9282,-1.52 0.7613,-0.3739 1.6126,-0.5941 2.551,-0.6611 1.7051,-0.1181 3.1336,0.2568 4.2827,1.1224 0.4288,0.3384 0.7993,0.7514 1.1103,1.2387 0.2594,0.421 0.4767,0.9844 0.6468,1.6872l-2.7448 0.1928c-0.2038,-0.5012 -0.4405,-0.8974 -0.7141,-1.1886 -0.2762,-0.2919 -0.6106,-0.4953 -1.002,-0.6106 -0.3944,-0.1156 -0.8656,-0.1536 -1.4121,-0.1138 -0.7335,0.0498 -1.3631,0.2803 -1.8884,0.6893 -0.5254,0.4079 -0.9084,0.9687 -1.1528,1.6791 -0.2458,0.7123 -0.3387,1.5233 -0.2754,2.4448 0.0494,0.6922 0.1789,1.3178 0.3907,1.872 0.2129,0.5498 0.4917,1.0174 0.8428,1.3938 0.3472,0.3783 0.7573,0.6585 1.2237,0.8429 0.4687,0.1836 0.9794,0.2549 1.538,0.2154 1.0495,-0.0731 1.8558,-0.507 2.4283,-1.3027 0.1563,-0.2356 0.2825,-0.4785 0.3721,-0.7291 0.0874,-0.2484 0.1756,-0.6025 0.2674,-1.0525l-2.9793 0.2082 -0.1547 -2.1986 5.4354 -0.379 0.4899 7.0301 -1.6561 0.1167 -0.4599 -1.8848zm4.567 2.0322l0.9146 -13.0813 2.6896 0.1884 -0.9146 13.081 -2.6896 -0.1881zm15.8192 3.2537l-1.3309 -1.8998c-0.2513,0.1475 -0.4525,0.2539 -0.5967,0.3209 -0.3314,0.1423 -0.7774,0.2275 -1.3378,0.2575 -0.5601,0.0278 -1.0997,-0.0033 -1.6276,-0.0955 -0.9241,-0.1639 -1.738,-0.4737 -2.4492,-0.9292 -0.709,-0.4569 -1.2895,-1.0356 -1.7337,-1.7274 -0.4477,-0.7002 -0.7408,-1.4944 -0.8889,-2.3874 -0.1489,-0.8912 -0.1306,-1.843 0.0479,-2.8546 0.1826,-1.0305 0.4917,-1.937 0.9376,-2.7257 0.4434,-0.7877 0.9921,-1.4297 1.6506,-1.9291 0.6589,-0.4982 1.4066,-0.8417 2.2437,-1.0235 0.8366,-0.1822 1.7311,-0.1884 2.6844,-0.0198 0.9534,0.1668 1.7926,0.4781 2.5129,0.9321 0.7247,0.4555 1.3082,1.0295 1.7563,1.7216 0.4434,0.6958 0.7434,1.4933 0.8868,2.3951 0.1489,0.8985 0.1306,1.8654 -0.0498,2.8996 -0.1876,1.0587 -0.4964,1.9282 -0.924,2.6087 -0.2971,0.5055 -0.7866,1.0356 -1.4659,1.5943l1.235 1.7263 -1.5507 1.1359zm-2.2817 -6.4668l1.2577 1.7732c0.311,-0.4507 0.5257,-0.8352 0.6424,-1.1523 0.1211,-0.3172 0.2469,-0.8528 0.3797,-1.6064 0.1277,-0.7302 0.1603,-1.3956 0.0963,-1.9952 -0.0644,-0.6014 -0.2177,-1.1297 -0.4621,-1.5833 -0.2451,-0.454 -0.574,-0.8261 -0.9837,-1.1103 -0.409,-0.2835 -0.9007,-0.4796 -1.4725,-0.5795 -0.5443,-0.0958 -1.0539,-0.0775 -1.5364,0.056 -0.4851,0.1321 -0.9194,0.3673 -1.2991,0.7057 -0.3841,0.3402 -0.7068,0.7704 -0.9716,1.2939 -0.2609,0.522 -0.4529,1.1187 -0.574,1.7944 -0.1602,0.9233 -0.1533,1.7644 0.0322,2.522 0.1803,0.7639 0.5165,1.3865 1.0034,1.8705 0.4917,0.4843 1.0979,0.7913 1.8204,0.9186 0.4481,0.0794 1.0174,0.0563 1.7128,-0.0666l-1.2325 -1.7128 1.587 -1.1279zm10.2556 -5.5891l2.5177 0.9658 -2.9384 7.6524c-0.2696,0.702 -0.3907,1.2376 -0.3592,1.599 0.0208,0.4445 0.1811,0.844 0.4734,1.2011 0.2952,0.357 0.698,0.6314 1.205,0.8275 0.7159,0.2743 1.3744,0.2992 1.978,0.076 0.2246,-0.0867 0.4185,-0.2052 0.5854,-0.3526 0.1649,-0.1441 0.3226,-0.3402 0.4668,-0.5872 0.1441,-0.2509 0.2882,-0.5593 0.4298,-0.9295l2.9383 -7.651 2.5151 0.9655 -3.0411 7.9227c-0.2857,0.747 -0.649,1.3697 -1.0836,1.8635 -0.4372,0.4961 -0.9373,0.8594 -1.5025,1.0931 -0.5648,0.232 -1.1962,0.3355 -1.8865,0.3007 -0.6907,-0.0311 -1.4246,-0.1961 -2.2067,-0.4968 -1.0496,-0.402 -1.8705,-0.9219 -2.4697,-1.565 -0.5949,-0.6409 -0.9512,-1.3868 -1.0609,-2.2249 -0.1123,-0.8425 0.0205,-1.7538 0.398,-2.7357l3.0411 -7.9246zm15.8353 21.889l-8.4858 -4.7038 6.3566 -11.4706 8.1982 4.5462 -1.0956 1.9758 -5.8401 -3.2383 -1.3675 2.4664 5.3324 2.957 -1.0855 1.9583 -5.333 -2.9559 -1.6627 2.9969 6.1309 3.3967 -1.1479 2.0713zm5.7171 4.7931l8.4283 -10.0435 2.0651 1.7304 -8.4286 10.0456 -2.0648 -1.7325zm14.2091 -5.1765l2.1998 2.5282 -4.7814 11.0755 0.0867 0.0984 0.4825 -0.4935 7.6857 -6.6822 1.4359 1.652 -9.8968 8.6032 -2.2359 -2.5736 4.642 -10.9265 -0.0509 -0.0578 -0.4547 0.4485 -7.5734 6.5834 -1.4344 -1.6521 9.8949 -8.6035zm0.2356 21.2231l9.0415 -5.8722 -2.1156 -3.2548 1.9553 -1.2713 5.6942 8.7668 -1.9554 1.2701 -2.1108 -3.2496 -9.0433 5.8715 -1.4659 -2.2605zm8.3556 15.6798l-4.0999 -8.7934 11.8836 -5.5416 3.9604 8.4968 -2.0464 0.9548 -2.8216 -6.0534 -2.5564 1.1919 2.5772 5.5254 -2.0311 0.9475 -2.5769 -5.5265 -3.1055 1.4483 2.9614 6.3497 -2.1448 1.0005zm2.8421 9.5821c0.3702,-0.2506 0.6588,-0.4218 0.8714,-0.5176 0.2125,-0.0955 0.5648,-0.2126 1.0565,-0.3534l0.4024 -0.116c0.9372,-0.2685 1.5456,-0.5948 1.8273,-0.9775 0.2788,-0.3812 0.315,-0.9339 0.1068,-1.6594l-0.7865 -2.7484 -4.9025 1.4044 -0.743 -2.5901 12.6043 -3.6136 1.7541 6.1093c0.2444,0.8539 0.3176,1.6221 0.2214,2.3131 -0.0959,0.6878 -0.3567,1.2625 -0.7818,1.726 -0.4299,0.4679 -1.0017,0.8019 -1.7267,1.0101 -0.6816,0.1953 -1.2599,0.2531 -1.7311,0.1712 -0.3633,-0.0472 -0.7134,-0.1866 -1.0496,-0.416 -0.2513,-0.1653 -0.4456,-0.3354 -0.5853,-0.5136 -0.142,-0.1803 -0.304,-0.4628 -0.4847,-0.8473 0.0504,0.3999 0.064,0.7127 0.0365,0.945 -0.0274,0.2323 -0.1075,0.4704 -0.2403,0.7214 -0.0933,0.1712 -0.2213,0.3292 -0.3772,0.4705 -0.199,0.1748 -0.3998,0.3175 -0.5897,0.428 -0.1968,0.1112 -0.4734,0.2312 -0.8322,0.357 -0.3593,0.1244 -0.8528,0.281 -1.482,0.4613 -0.4756,0.1464 -0.7983,0.2839 -0.9786,0.4076 -0.1763,0.1225 -0.3066,0.3091 -0.3885,0.5567l-0.3867 0.1109 -0.8143 -2.8396zm5.6663 -7.0008l0.8736 3.0459c0.3702,1.295 1.1092,1.7837 2.2206,1.4666 0.5348,-0.1551 0.9054,-0.431 1.1066,-0.8261 0.2016,-0.3991 0.2173,-0.8915 0.0505,-1.4728l-0.9076 -3.1714 -3.3437 0.9578zm8.5662 11.277l0.2949 3.3371 -10.3771 6.1496 0.0095 0.1287 0.6837 -0.1137 10.1437 -0.8883 0.1917 2.1804 -13.0633 1.1428 -0.2953 -3.396 10.1755 -6.1115 -0.0062 -0.0761 -0.6314 0.0944 -9.9952 0.8743 -0.192 -2.1781 13.0615 -1.1436zm0.9354 18.7513l-0.2176 3.1003 -13.6282 3.794 0.2008 -2.8882 2.7532 -0.7203 0.3545 -5.0674 -2.6295 -1.0404 0.1946 -2.7639 12.9722 5.5859zm-2.5337 1.205l-5.854 -2.1423 -0.256 3.6312 6.11 -1.4889zm-12.3873 9.517l10.5029 2.4243 0.8736 -3.7822 2.2729 0.5235 -2.353 10.185 -2.2707 -0.5261 0.8711 -3.7731 -10.5026 -2.4258 0.6058 -2.6256zm-2.1335 7.8507l12.4718 4.0515 -0.8348 2.5637 -12.4689 -4.0544 0.8319 -2.5608zm7.8686 16.1985c-0.4525,0.8919 -1.0038,1.6257 -1.6535,2.2019 -0.6468,0.5765 -1.3693,0.9811 -2.1628,1.2167 -0.7979,0.2356 -1.6419,0.2927 -2.5473,0.1691 -0.8988,-0.1211 -1.8251,-0.4229 -2.7675,-0.9033 -0.9325,-0.4756 -1.7124,-1.0378 -2.334,-1.6897 -0.6244,-0.6516 -1.0773,-1.3697 -1.3634,-2.1493 -0.2806,-0.7821 -0.3859,-1.5917 -0.3131,-2.4422 0.0735,-0.8484 0.3292,-1.7033 0.7664,-2.5612 0.4411,-0.8645 0.9833,-1.5731 1.6279,-2.1288 0.6446,-0.5535 1.3653,-0.9471 2.1631,-1.1754 0.7983,-0.2308 1.6415,-0.2813 2.5407,-0.1624 0.8915,0.1189 1.8043,0.4119 2.7324,0.8875 0.9058,0.4595 1.6693,1.0196 2.2985,1.6781 0.6285,0.6563 1.0836,1.3674 1.3784,2.1426 0.2927,0.7704 0.4097,1.5778 0.3523,2.4192 -0.0549,0.8349 -0.2948,1.6693 -0.7181,2.4972l0 0zm-4.5505 -6.3043c-0.615,-0.3132 -1.2117,-0.5191 -1.7948,-0.6219 -0.5787,-0.1006 -1.1227,-0.0985 -1.6305,0.0087 -0.5052,0.1032 -0.9559,0.311 -1.3517,0.6157 -0.3955,0.3062 -0.7156,0.6995 -0.9625,1.1842 -0.3454,0.6768 -0.4782,1.3492 -0.4024,2.0124 0.0779,0.6633 0.3614,1.2852 0.8531,1.8658 0.4891,0.5765 1.1593,1.0861 2.012,1.5207 0.6197,0.3157 1.2098,0.5213 1.7838,0.6223 0.5714,0.0955 1.1088,0.0936 1.6097,-0.0161 0.5008,-0.1098 0.9445,-0.3179 1.3378,-0.6289 0.3885,-0.3113 0.713,-0.7181 0.9672,-1.2167 0.2517,-0.4913 0.3842,-0.9878 0.3955,-1.4864 0.0157,-0.5004 -0.0845,-0.9833 -0.2971,-1.452 -0.2129,-0.4708 -0.533,-0.9123 -0.9581,-1.3213 -0.4276,-0.4141 -0.9467,-0.7734 -1.562,-1.0865l0 0zm-1.0613 15.9907l-2.0622 2.6387 -11.7811 -2.5795 -0.0798 0.1032 0.5759 0.3819 8.0244 6.27 -1.347 1.7219 -10.3339 -8.072 2.0995 -2.6866 11.6117 2.4715 0.0454 -0.0593 -0.5257 -0.3614 -7.9048 -6.1785 1.3466 -1.7241 10.331 8.0742zm-11.8583 14.3649l-2.2367 2.1584 -12.6679 -6.297 2.083 -2.0124 2.5268 1.3057 3.6565 -3.5285 -1.2578 -2.5337 1.9916 -1.9231 5.9045 12.8306zm-2.6892 -0.8l-2.9179 -5.509 -2.6182 2.5293 5.5361 2.9797zm-5.7073 7.8272l-2.1814 1.5826 -6.2817 -8.6463 -4.9943 3.6293 -1.4245 -1.9623 7.1732 -5.2137 7.7087 10.6104zm-24.6941 -0.3844l8.5658 -4.555 6.1558 11.5774 -8.2757 4.4024 -1.0631 -1.9967 5.8993 -3.1352 -1.3261 -2.4898 -5.3828 2.8626 -1.0518 -1.9777 5.385 -2.8633 -1.6093 -3.025 -6.1879 3.2906 -1.1092 -2.0903z"/>
 </g>
</svg>
