<?xml version="1.0" standalone="no"?>
<!DOCTYPE svg PUBLIC "-//W3C//DTD SVG 20010904//EN"
 "http://www.w3.org/TR/2001/REC-SVG-20010904/DTD/svg10.dtd">
<svg version="1.0" xmlns="http://www.w3.org/2000/svg"
 width="1701.000000pt" height="1701.000000pt" viewBox="0 0 1701.000000 1701.000000"
 preserveAspectRatio="xMidYMid meet">
<metadata>
Created by potrace 1.11, written by Peter Selinger 2001-2013
</metadata>
<g transform="translate(0.000000,1701.000000) scale(0.100000,-0.100000)"
fill="#000000" stroke="none">
<path d="M7945 17001 c-22 -4 -63 -6 -91 -6 -44 0 -51 -3 -49 -17 3 -14 -3
-18 -23 -19 -15 0 -119 -2 -232 -3 -113 -2 -218 -6 -235 -9 -16 -2 -50 -8 -75
-11 -25 -4 -56 -9 -70 -12 -14 -2 -41 -6 -60 -8 -44 -5 -108 -15 -137 -21 -12
-3 -40 -7 -64 -10 -23 -3 -45 -8 -49 -10 -4 -3 -25 -7 -46 -11 -22 -3 -47 -11
-58 -16 -14 -8 -17 -7 -11 3 6 8 4 10 -5 4 -12 -7 -49 -17 -115 -29 -55 -10
-83 -16 -112 -25 -17 -5 -34 -7 -37 -3 -3 3 -6 1 -6 -5 0 -5 -15 -10 -32 -11
-18 0 -34 -6 -36 -11 -2 -6 -8 -9 -12 -6 -11 7 -100 -14 -116 -26 -6 -5 -14
-6 -17 -2 -4 3 -17 1 -30 -5 -12 -6 -65 -23 -117 -37 -52 -15 -102 -29 -110
-32 -8 -3 -20 -7 -27 -9 -15 -3 -83 -24 -103 -31 -8 -3 -19 -7 -25 -8 -39 -10
-152 -50 -162 -58 -7 -5 -13 -7 -13 -4 0 4 -20 -2 -45 -13 -25 -11 -48 -19
-50 -19 -5 0 -100 -33 -135 -48 -8 -3 -19 -7 -25 -8 -5 -2 -85 -33 -177 -70
-120 -49 -168 -73 -171 -87 -5 -17 -1 -18 34 -13 21 3 39 2 39 -3 0 -5 16 -4
35 2 19 6 35 14 35 18 0 5 6 8 14 8 8 0 27 5 43 12 15 6 30 12 33 13 25 8 48
18 62 26 10 5 22 9 27 9 5 0 22 5 38 12 15 6 33 12 38 14 6 1 62 20 125 43
373 130 436 151 451 151 29 0 192 69 215 91 13 13 24 19 24 15 0 -5 7 -3 15 4
8 7 15 9 15 6 0 -4 8 -3 18 3 12 6 21 5 30 -5 11 -12 1 -21 -11 -11 -2 1 -11
-4 -20 -11 -9 -8 -20 -11 -26 -8 -5 3 -12 0 -14 -6 -4 -10 -8 -10 -15 1 -7 9
-12 10 -16 2 -4 -6 -2 -11 4 -11 6 0 8 -5 5 -10 -4 -6 -3 -9 2 -8 4 2 8 -1 8
-7 0 -5 -4 -10 -10 -11 -5 0 -22 -4 -36 -8 -14 -4 -32 -8 -40 -10 -49 -9 -128
-34 -194 -61 -16 -7 -57 -23 -90 -35 -33 -13 -84 -34 -113 -47 -29 -12 -56
-23 -60 -23 -4 -1 -25 -9 -47 -20 -22 -11 -43 -19 -46 -20 -4 0 -24 -8 -45
-17 -22 -9 -41 -17 -44 -18 -3 -1 -36 -16 -75 -34 -38 -18 -74 -34 -80 -35 -5
-2 -50 -22 -100 -46 -49 -24 -92 -44 -95 -45 -3 -1 -21 -8 -41 -17 -20 -9 -47
-19 -60 -23 -26 -8 -72 -27 -224 -95 -63 -28 -251 -122 -377 -188 -54 -28 -98
-49 -98 -46 0 14 -292 -158 -545 -321 -44 -28 -95 -57 -113 -63 -19 -6 -57
-28 -85 -49 -75 -53 -321 -237 -327 -243 -3 -3 -23 -18 -45 -34 -22 -17 -49
-38 -60 -48 -23 -20 -84 -67 -132 -100 -29 -20 -58 -59 -33 -43 6 3 10 1 10
-6 0 -8 5 -7 17 2 9 8 3 -7 -14 -32 -29 -41 -112 -119 -128 -119 -4 0 3 12 14
26 20 25 20 44 0 44 -16 0 -360 -335 -489 -476 -137 -150 -201 -222 -221 -249
-13 -16 -28 -34 -35 -40 -6 -5 -26 -30 -45 -55 -49 -65 -52 -69 -70 -88 -9 -9
-20 -24 -25 -33 -5 -9 -37 -48 -71 -85 -107 -120 -123 -139 -123 -147 0 -5 -5
-5 -12 -1 -6 4 -8 3 -5 -3 4 -5 -2 -19 -12 -29 -10 -11 -26 -33 -37 -49 -10
-17 -23 -34 -27 -40 -18 -22 -114 -154 -142 -196 -16 -24 -36 -50 -43 -57 -6
-8 -17 -23 -23 -34 -6 -11 -17 -17 -24 -14 -10 3 -12 0 -8 -11 4 -11 2 -14 -5
-9 -7 4 -12 2 -12 -4 0 -6 -9 -21 -21 -33 -12 -12 -43 -56 -70 -97 -27 -41
-52 -80 -56 -86 -16 -21 -33 -49 -40 -64 -4 -8 -9 -17 -13 -20 -6 -5 -65 -105
-83 -140 -4 -8 -16 -28 -26 -45 -22 -34 -40 -67 -130 -240 -35 -66 -68 -123
-75 -127 -7 -5 -6 -8 4 -8 10 0 11 -3 4 -8 -6 -4 -17 -21 -24 -39 -8 -17 -18
-29 -24 -26 -5 3 -6 1 -3 -5 10 -15 -3 -43 -16 -35 -5 3 -7 1 -4 -4 10 -16
-22 -85 -35 -77 -6 4 -8 3 -4 -4 7 -12 -31 -82 -45 -82 -5 0 -8 -3 -8 -7 3
-13 -25 -73 -33 -73 -4 0 -8 -5 -8 -11 0 -6 -16 -47 -36 -92 -49 -110 -55
-134 -39 -141 18 -7 -18 -107 -105 -291 -35 -74 -51 -111 -49 -118 1 -1 -11
-28 -25 -61 -14 -32 -26 -65 -26 -72 0 -8 -4 -22 -10 -32 -10 -19 -80 -215
-80 -226 0 -4 -15 -48 -34 -99 -67 -185 -86 -264 -63 -278 5 -4 7 -14 4 -23
-4 -9 -7 -20 -8 -24 -1 -4 -5 -17 -10 -30 -5 -13 -11 -36 -14 -52 -3 -17 -14
-47 -25 -67 -10 -21 -21 -56 -24 -78 -3 -22 -10 -58 -15 -80 -5 -22 -13 -56
-16 -75 -3 -19 -8 -42 -10 -50 -2 -8 -7 -33 -10 -55 -3 -23 -7 -50 -9 -60 -2
-11 -7 -42 -10 -70 -4 -27 -9 -61 -11 -75 -3 -14 -7 -41 -9 -60 -12 -101 -18
-148 -26 -178 -6 -22 -5 -30 2 -26 7 4 8 2 4 -4 -9 -16 -14 -54 -31 -257 -3
-33 -7 -107 -10 -165 -2 -58 -5 -105 -6 -105 -1 0 -3 -10 -4 -22 -1 -13 2 -23
8 -23 5 0 4 -7 -4 -16 -10 -13 -10 -17 2 -25 11 -7 11 -9 0 -9 -10 0 -11 -3
-2 -13 6 -8 8 -16 6 -19 -10 -10 -14 -48 -5 -48 5 0 7 -10 5 -22 -3 -12 0 -27
6 -35 9 -9 8 -13 0 -13 -7 0 -9 -5 -6 -10 14 -22 23 3 23 59 -1 32 2 63 6 69
3 6 0 13 -6 15 -8 3 -9 6 -2 6 7 1 9 12 6 27 -3 15 1 29 8 34 7 4 13 24 13 43
1 20 4 34 8 31 4 -2 9 1 11 6 2 6 3 -197 3 -452 0 -402 6 -646 20 -762 2 -17
7 -69 10 -115 4 -47 8 -93 10 -103 2 -10 7 -51 10 -90 4 -40 8 -75 10 -78 1
-3 6 -34 10 -70 4 -36 9 -74 11 -85 2 -10 6 -37 9 -60 10 -70 36 -219 40 -225
1 -3 6 -26 9 -51 3 -26 15 -89 27 -140 24 -109 27 -127 33 -155 2 -11 12 -51
21 -88 9 -37 18 -72 19 -79 4 -17 15 -45 39 -97 11 -25 21 -58 22 -75 5 -54
16 -119 24 -135 5 -8 12 -32 15 -54 4 -21 12 -50 18 -65 6 -14 13 -37 15 -51
2 -14 11 -35 19 -47 8 -14 10 -23 4 -23 -6 0 -4 -10 5 -23 8 -13 12 -27 8 -30
-3 -4 0 -7 8 -7 11 0 11 -2 -1 -10 -11 -7 -11 -10 -2 -10 7 0 10 -4 7 -10 -3
-5 -1 -10 5 -10 7 0 10 -7 7 -15 -4 -8 -2 -17 4 -21 7 -4 7 -10 0 -18 -7 -9
-5 -19 6 -36 9 -13 11 -20 4 -16 -9 6 -10 4 -2 -10 5 -11 26 -68 46 -129 20
-60 42 -123 49 -140 7 -16 28 -68 46 -115 48 -125 113 -273 125 -286 30 -32
118 -176 130 -215 5 -16 4 -20 -6 -15 -8 4 -6 1 3 -7 10 -8 15 -16 13 -19 -7
-6 85 -190 99 -200 6 -4 8 -8 4 -8 -6 0 19 -47 94 -183 7 -12 18 -25 23 -29 6
-5 6 -8 0 -8 -5 0 0 -6 11 -14 16 -11 96 -132 189 -284 6 -9 42 -64 80 -121
39 -57 74 -112 80 -122 5 -10 13 -19 17 -19 5 0 8 -6 8 -14 0 -8 4 -16 8 -18
5 -1 26 -28 47 -58 21 -30 50 -70 64 -89 21 -28 23 -34 8 -28 -15 6 -17 3 -11
-16 8 -26 34 -66 34 -52 0 5 8 -5 17 -22 10 -18 27 -43 38 -55 11 -13 33 -41
48 -63 54 -77 -59 53 -136 155 -39 52 -74 97 -77 100 -21 20 -160 218 -160
229 0 5 -7 15 -16 22 -9 7 -20 22 -25 34 -5 11 -32 54 -59 95 -28 41 -53 82
-57 90 -4 8 -9 17 -13 20 -7 6 -39 59 -83 140 -17 30 -65 111 -106 180 -42 69
-83 139 -91 155 -8 17 -23 39 -32 49 -10 11 -18 24 -18 29 0 5 -10 23 -22 40
-13 18 -22 33 -20 35 7 7 0 22 -8 17 -6 -3 -7 1 -4 9 4 9 -1 18 -10 22 -9 3
-16 10 -16 16 0 5 5 6 11 3 9 -6 -8 32 -21 45 -3 3 -7 16 -8 30 -5 32 -72 158
-88 164 -19 7 -24 -19 -8 -49 8 -15 12 -30 10 -32 -3 -3 -19 22 -35 56 -23 45
-28 61 -17 61 17 0 15 15 -8 59 -10 19 -19 49 -20 66 -2 17 -6 37 -11 45 -4 7
-11 27 -15 44 -4 17 -11 30 -16 29 -6 -1 -11 8 -11 20 -1 12 -7 23 -13 25 -5
2 -10 10 -10 18 0 12 -4 12 -20 4 -17 -9 -20 -8 -20 8 0 11 -12 32 -27 48 -16
16 -30 40 -32 54 -1 14 -8 28 -13 31 -6 4 -8 11 -4 17 3 6 -1 15 -10 20 -9 5
-15 12 -14 16 2 6 -8 37 -30 91 -5 11 -15 40 -24 64 -17 43 -39 74 -48 65 -3
-2 -13 22 -22 53 -10 32 -22 66 -27 76 -8 15 -7 18 7 15 10 -2 23 -24 34 -61
19 -60 35 -87 53 -87 13 0 2 69 -18 106 -8 16 -15 35 -15 42 0 17 -90 294
-100 307 -7 9 -24 76 -35 133 -2 13 -6 31 -9 40 -3 9 -8 28 -10 42 -3 14 -10
48 -16 75 -6 28 -13 62 -15 77 -2 15 -6 35 -9 45 -6 21 -16 83 -21 133 -5 41
-39 152 -46 146 -4 -4 -10 34 -12 82 -1 12 -4 22 -7 22 -3 0 -6 15 -6 33 0 17
-4 66 -8 107 -5 41 -8 81 -7 88 0 6 1 18 2 25 1 20 -38 228 -54 282 -11 41
-14 118 -6 170 2 11 -9 146 -17 210 -3 22 -7 60 -9 85 -2 25 -7 61 -10 80 -4
19 -8 84 -10 143 -1 67 -7 113 -15 120 -9 9 -10 -62 -6 -318 8 -552 24 -730
71 -821 8 -16 18 -45 21 -64 4 -19 12 -38 18 -42 7 -5 7 -8 -3 -8 -11 0 -11
-3 -1 -15 6 -8 9 -19 5 -25 -3 -5 -1 -10 5 -10 6 0 8 -4 5 -10 -3 -5 -1 -10 6
-10 8 0 8 -4 -1 -15 -8 -9 -8 -15 -2 -15 6 0 11 -8 11 -18 0 -9 2 -36 5 -60 4
-31 1 -42 -9 -42 -12 0 -35 75 -35 114 0 23 -23 36 -37 21 -6 -7 -10 -14 -8
-16 2 -2 6 -31 9 -64 3 -33 10 -89 16 -125 6 -36 12 -76 14 -90 2 -14 6 -36
11 -49 4 -12 9 -35 11 -49 2 -15 6 -36 8 -47 32 -158 41 -195 47 -195 5 0 6
-6 3 -14 -3 -8 -1 -17 4 -20 12 -7 36 49 27 63 -3 6 -2 11 3 11 12 0 33 -75
36 -125 0 -11 4 -22 7 -25 3 -3 14 -36 23 -75 9 -38 19 -79 22 -90 3 -11 7
-31 10 -43 3 -13 12 -35 21 -48 25 -39 2 -29 -47 20 -11 11 -23 16 -27 12 -10
-10 -12 -36 -3 -36 5 0 8 -8 8 -17 -1 -15 44 -159 69 -223 3 -8 7 -22 9 -30 2
-8 7 -23 13 -35 5 -11 17 -40 25 -65 18 -56 95 -251 105 -265 4 -5 13 -28 20
-50 19 -55 129 -283 155 -320 12 -16 20 -32 18 -35 -1 -3 5 -13 13 -23 8 -9
15 -24 15 -33 0 -14 3 -14 15 -4 13 11 15 10 9 -6 -5 -15 -4 -16 4 -4 8 10 8
18 0 27 -6 7 -8 13 -4 13 4 0 -1 15 -11 33 -9 17 -16 35 -15 40 1 4 -3 7 -9 7
-5 0 -8 4 -5 8 3 5 -1 20 -8 33 -12 24 -27 72 -26 84 1 3 -6 18 -14 33 -14 25
-76 197 -76 210 0 20 21 -23 40 -83 13 -38 25 -74 29 -80 3 -5 6 -15 7 -21 1
-5 11 -30 23 -54 11 -24 21 -49 21 -56 0 -7 3 -14 8 -16 13 -6 123 -248 172
-380 45 -119 46 -126 24 -111 -22 14 -24 14 -24 -4 0 -10 11 -34 25 -53 14
-19 25 -37 25 -41 0 -4 44 -73 98 -154 54 -81 99 -152 99 -159 0 -13 54 -99
66 -104 4 -2 3 -10 -4 -18 -9 -11 -9 -18 3 -32 8 -9 19 -29 26 -44 6 -16 16
-28 21 -28 5 0 8 -6 7 -13 -1 -10 43 -83 197 -331 7 -11 39 -63 71 -115 33
-53 74 -118 91 -146 18 -27 40 -66 50 -85 15 -31 207 -277 275 -354 14 -15 41
-36 60 -46 33 -17 96 -73 130 -115 15 -18 14 -18 -12 -1 -27 17 -28 17 -28 1
0 -21 38 -85 51 -85 5 0 9 -5 9 -10 0 -10 16 -29 113 -134 111 -118 160 -166
172 -166 8 0 1 25 -10 32 -6 5 -3 8 7 8 9 0 18 4 20 9 2 5 23 -9 48 -31 25
-22 37 -38 28 -35 -42 14 -11 -27 109 -146 143 -141 163 -159 217 -202 22 -16
44 -35 50 -40 10 -9 113 -93 126 -103 2 -2 -2 -7 -9 -12 -12 -7 -12 -10 0 -22
30 -30 129 -98 146 -101 10 -1 61 -36 113 -76 81 -63 156 -115 257 -177 12 -8
20 -20 18 -27 -5 -11 20 -30 124 -100 14 -9 33 -16 42 -15 18 3 146 -73 379
-227 85 -56 182 -119 215 -141 58 -37 259 -142 340 -176 22 -10 92 -41 155
-69 186 -82 362 -156 560 -234 102 -40 194 -76 205 -80 11 -4 25 -9 30 -11 66
-18 188 -67 217 -86 26 -18 63 -29 120 -38 76 -11 132 -22 319 -64 114 -26
118 -26 112 -9 -5 11 -1 14 13 10 10 -3 39 -9 64 -12 25 -4 52 -9 60 -11 96
-22 135 -34 138 -43 2 -6 13 -11 23 -11 13 0 18 -4 13 -12 -4 -6 -3 -8 3 -5 5
3 27 1 49 -4 21 -6 52 -12 67 -14 16 -3 33 -7 38 -11 5 -3 26 -7 47 -9 54 -6
100 -13 130 -19 25 -5 84 -12 177 -21 22 -3 85 -7 140 -10 55 -3 116 -8 135
-10 19 -3 75 -7 124 -10 153 -8 109 -17 -64 -14 -176 4 -210 -4 -127 -32 34
-11 78 -15 153 -14 86 2 104 0 100 -11 -4 -9 2 -14 17 -15 12 0 36 -2 54 -3
22 -3 30 0 27 9 -3 7 -20 11 -45 9 -21 -2 -39 1 -39 6 0 5 11 7 24 4 31 -5 65
24 44 38 -8 6 0 7 25 3 24 -4 37 -2 37 5 0 6 -3 9 -8 7 -4 -3 -13 2 -21 11
-13 14 -9 14 45 8 32 -5 70 -10 84 -12 54 -10 99 -13 197 -13 78 -1 101 -4 98
-13 -4 -10 -36 -12 -120 -11 -102 2 -119 0 -152 -20 -20 -11 -34 -17 -31 -12
3 6 -7 10 -23 10 -16 0 -29 -4 -29 -10 0 -5 -5 -4 -12 3 -9 9 -15 7 -25 -6 -8
-9 -12 -12 -9 -5 4 6 2 14 -4 18 -5 3 -10 1 -10 -5 0 -6 -4 -8 -10 -5 -5 3 -7
0 -4 -8 2 -7 10 -14 17 -14 7 -1 32 -4 57 -8 73 -12 810 -16 831 -4 11 5 19 6
19 2 0 -8 46 -9 60 -2 5 2 18 5 35 9 6 1 1 5 -10 10 -17 8 -16 8 8 7 16 -1 27
-7 27 -16 0 -11 4 -10 15 5 13 16 16 17 25 4 5 -8 10 -10 10 -4 0 7 42 11 128
12 129 0 194 7 223 23 10 5 20 4 27 -3 9 -9 12 -9 12 0 0 7 5 12 11 12 5 0 8
-3 6 -7 -3 -5 14 -7 36 -5 23 1 55 3 72 3 16 0 33 6 38 12 7 9 10 9 14 -1 2
-6 9 -9 15 -6 6 4 19 7 29 8 11 1 19 4 19 9 0 4 -3 7 -6 6 -4 0 -11 5 -15 13
-6 10 -9 8 -9 -7 0 -13 -3 -16 -8 -8 -9 14 -111 14 -129 0 -9 -6 -13 -6 -13 2
0 6 -10 10 -21 8 -12 -1 -24 3 -26 10 -4 10 26 14 230 28 21 1 40 -2 43 -7 3
-4 32 -7 64 -6 32 2 56 6 54 10 -2 3 5 4 16 1 27 -7 26 -9 -16 -29 -26 -12
-32 -19 -22 -25 16 -11 41 -12 35 -1 -3 4 9 8 26 8 18 1 59 7 92 12 33 6 74
13 90 16 84 13 225 40 403 77 108 22 208 42 222 45 14 3 32 7 40 10 8 3 29 8
45 11 17 3 55 11 85 19 30 9 64 17 75 19 42 9 250 70 255 75 3 3 14 6 26 7 44
4 74 22 74 44 0 12 3 20 6 17 3 -4 21 0 39 8 42 17 45 17 45 0 0 -18 137 26
200 64 25 15 56 31 70 35 14 5 41 18 61 31 20 13 39 21 41 18 3 -2 11 2 18 11
7 8 20 15 29 15 21 1 53 25 43 34 -4 4 -2 7 3 6 22 -5 35 1 35 15 0 8 12 17
28 21 15 3 41 12 59 20 40 18 42 18 36 -6 -5 -18 -3 -19 20 -11 49 19 312 154
330 170 10 8 18 11 17 6 -5 -26 7 -22 103 28 170 90 211 111 244 123 26 9 109
54 313 169 94 54 394 253 398 266 2 5 9 9 15 9 11 0 109 78 115 91 2 4 11 17
20 28 9 12 53 67 97 123 100 127 135 163 259 263 54 44 117 97 140 117 22 20
43 35 45 32 7 -7 -30 -43 -84 -82 -27 -21 -57 -44 -66 -52 -8 -8 -54 -50 -101
-92 -87 -79 -108 -115 -59 -103 14 3 31 11 36 18 6 7 23 23 38 37 21 18 26 20
21 7 -3 -9 -10 -17 -14 -17 -4 0 -10 -7 -14 -15 -13 -35 20 -15 115 68 9 8 43
34 75 58 33 23 97 79 144 124 47 44 107 98 135 120 45 37 87 79 190 190 21 22
34 35 31 28 -10 -19 11 -24 25 -6 12 14 12 16 0 8 -10 -5 -12 -4 -7 3 4 7 12
12 18 12 11 0 61 50 255 256 136 144 151 160 208 229 22 26 46 54 53 61 7 8
10 14 6 14 -4 0 1 7 12 15 10 8 15 15 9 15 -5 0 -3 5 5 10 13 8 13 10 -2 10
-16 0 -68 -53 -68 -71 0 -5 -7 -9 -15 -9 -8 0 -15 -3 -15 -7 0 -5 -30 -39 -66
-78 -62 -66 -77 -65 -17 2 69 77 83 93 83 97 0 3 10 16 23 29 64 69 165 185
257 295 33 40 66 80 73 88 6 8 31 35 55 59 24 25 90 104 147 177 58 73 108
138 113 143 7 9 202 323 227 366 184 314 317 567 395 749 18 41 45 103 61 138
16 35 29 67 29 72 0 5 6 15 13 22 35 36 207 474 270 688 17 58 52 225 63 300
3 25 7 50 8 55 4 16 15 78 20 110 3 17 7 41 10 55 7 30 20 93 21 100 0 3 4 11
8 17 5 7 6 13 4 13 -3 0 -1 17 4 38 17 66 19 77 24 104 3 15 9 37 14 50 5 13
8 25 8 28 0 13 15 50 21 50 7 0 10 23 13 78 1 12 5 22 11 22 5 0 7 4 3 9 -3 6
1 13 9 18 16 9 43 69 41 93 0 8 3 17 7 20 3 3 8 17 10 30 2 14 7 30 10 36 4 6
10 35 13 64 4 44 3 51 -9 41 -12 -10 -14 -5 -11 31 1 24 4 43 5 43 1 0 4 20 6
45 7 85 9 93 24 97 9 3 11 1 5 -4 -10 -7 -11 -13 -6 -45 4 -27 31 58 35 107 1
17 5 36 9 43 5 7 3 12 -3 12 -6 0 -8 5 -5 10 4 6 9 34 12 63 3 29 9 57 14 62
4 6 4 17 -1 25 -5 8 -5 21 -1 29 4 9 7 33 6 54 0 20 4 37 10 37 7 0 7 3 0 8
-14 10 -17 32 -4 32 8 0 8 4 0 14 -7 8 -8 16 -4 19 7 4 9 115 3 142 -1 6 -2
12 -1 15 5 13 6 108 2 105 -8 -4 -4 256 3 263 3 3 0 12 -7 20 -6 9 -7 13 -2
10 7 -4 11 7 11 30 0 20 3 57 8 82 9 54 10 474 1 580 -4 41 -13 86 -20 100 -8
15 -12 53 -10 98 1 40 -2 94 -7 120 -6 26 -10 54 -10 62 0 8 -7 22 -15 31 -8
9 -16 34 -18 56 -5 52 -23 96 -35 88 -5 -3 -10 -14 -10 -23 0 -13 -3 -12 -15
5 -14 20 -15 39 -2 73 7 19 7 81 0 100 -6 14 -14 85 -17 143 0 15 -3 27 -6 27
-5 0 -8 18 -13 72 -1 13 -5 26 -10 29 -4 3 -10 16 -12 29 -2 13 -9 28 -14 33
-5 5 -7 16 -4 23 3 8 0 21 -7 29 -10 12 -10 15 1 15 9 0 10 3 4 8 -5 4 -11 16
-11 27 -3 38 -10 70 -17 82 -4 6 -3 14 3 18 6 4 7 13 1 23 -14 26 -21 83 -9
76 5 -3 7 -8 4 -11 -9 -9 34 -83 49 -83 16 0 13 27 -11 101 -9 25 -17 55 -19
65 -2 10 -4 19 -5 19 -1 0 -6 17 -13 48 -1 6 -6 18 -10 25 -5 6 -6 12 -2 12 3
0 -1 16 -9 35 -8 19 -13 35 -10 35 3 0 0 9 -6 21 -7 11 -13 35 -15 52 -2 18
-4 32 -5 32 -2 0 -4 14 -5 30 -2 17 -4 31 -5 33 -3 3 -6 12 -15 49 -4 17 -16
41 -26 52 -11 11 -19 23 -19 27 0 3 -10 20 -22 37 -15 21 -18 32 -10 35 7 2
12 11 12 20 0 20 -23 89 -33 98 -10 11 -8 46 2 40 5 -4 11 0 14 6 5 18 -4 48
-15 48 -5 0 -7 4 -4 9 3 5 -5 29 -19 55 -13 25 -25 48 -25 51 -1 5 -17 45 -44
108 -7 17 -22 41 -32 52 -11 11 -24 31 -31 45 -11 23 -44 98 -48 110 -1 3 -7
18 -14 35 -8 20 -9 31 -2 33 16 5 13 34 -6 62 -10 14 -16 27 -14 29 2 1 -13
21 -33 42 -20 22 -36 41 -36 44 0 2 -5 16 -12 32 -6 15 -12 30 -12 33 -5 23
-31 70 -39 70 -6 0 -7 3 -4 7 4 3 2 12 -4 20 -6 7 -9 13 -5 13 3 0 0 16 -8 35
-8 19 -13 35 -11 35 10 0 -81 217 -121 293 -8 15 -12 27 -7 27 4 0 4 4 -2 8
-5 4 -30 48 -55 97 -24 50 -59 113 -77 140 -17 28 -33 57 -35 65 -2 8 -8 19
-14 25 -7 5 -23 31 -37 57 -13 26 -27 45 -31 41 -3 -3 -6 -1 -6 5 0 6 -6 17
-13 24 -23 24 -76 116 -70 122 4 3 2 6 -3 6 -6 0 -16 16 -24 35 -8 19 -17 35
-22 35 -4 0 -8 6 -8 13 0 7 -21 44 -46 82 -25 39 -46 75 -47 80 -1 6 -10 17
-19 26 -10 9 -18 20 -18 25 0 5 -7 18 -15 28 -11 14 -18 16 -28 8 -10 -9 -24
3 -63 59 -27 38 -59 81 -71 95 -13 14 -23 29 -23 33 0 4 -12 21 -27 38 -44 47
-63 72 -63 83 0 6 -4 10 -10 10 -5 0 -10 5 -10 11 0 6 -8 23 -19 37 -10 15
-17 35 -16 45 2 9 0 17 -3 17 -4 0 -18 17 -32 37 -14 20 -38 51 -53 67 -15 17
-40 46 -55 64 -42 51 -172 182 -234 235 -60 51 -90 79 -234 216 -159 150 -182
170 -189 163 -5 -4 -5 -1 -1 6 5 7 14 11 22 8 38 -15 -61 89 -207 214 -94 83
-144 128 -158 144 -58 66 -154 146 -177 146 -4 0 -22 15 -40 34 -18 19 -62 56
-96 82 -35 26 -77 59 -93 73 -17 14 -48 40 -69 56 -21 17 -44 35 -50 40 -40
37 -141 105 -156 105 -10 0 -23 7 -30 15 -7 8 -16 15 -20 15 -5 0 -92 56 -195
125 -102 69 -189 125 -192 125 -3 0 -18 9 -34 21 -16 11 -29 17 -29 12 0 -4
-4 -3 -8 3 -4 6 -47 32 -97 58 -49 27 -101 59 -114 72 -13 13 -27 24 -32 24
-4 0 -31 14 -59 30 -28 17 -56 30 -61 30 -6 0 -23 8 -37 18 -15 11 -67 36
-117 57 -49 21 -144 64 -210 95 -130 62 -223 105 -270 125 -108 44 -142 59
-160 66 -11 4 -47 19 -80 34 -33 15 -67 28 -75 30 -9 2 -58 19 -110 38 -238
89 -660 219 -847 262 -10 2 -47 12 -83 20 -36 9 -72 18 -80 20 -8 2 -15 4 -15
5 0 1 -9 3 -20 5 -38 5 -90 16 -150 30 -33 8 -87 19 -120 25 -33 5 -71 12 -85
15 -112 23 -306 53 -385 60 -27 2 -50 4 -50 5 0 3 -99 17 -175 25 -19 1 -64 6
-100 10 -36 3 -87 9 -115 12 -69 8 -1140 11 -1190 4z m697 -20 c5 -4 -19 -5
-52 -3 -49 3 -60 1 -60 -12 0 -9 12 -18 28 -22 15 -3 38 -10 52 -16 16 -8 138
-13 340 -15 374 -3 466 -9 500 -31 14 -9 30 -17 35 -18 6 -1 28 -5 50 -9 22
-4 51 -8 65 -10 14 -1 50 -6 80 -10 30 -5 62 -9 70 -10 64 -8 110 -18 110 -25
0 -4 -17 -6 -37 -4 -21 2 -72 5 -113 8 -41 3 -91 8 -110 11 -19 3 -57 7 -85
10 -27 3 -72 7 -100 10 -27 3 -69 8 -92 10 -23 3 -57 7 -75 10 -18 2 -69 7
-113 10 -44 3 -109 8 -145 11 -36 4 -108 8 -160 9 -52 1 -95 3 -95 5 0 1 -58
4 -130 5 -71 2 -141 7 -155 12 -26 10 -253 10 -430 -1 -255 -15 -492 -43 -502
-59 -5 -7 -8 -8 -8 -2 0 14 -38 17 -45 4 -4 -5 -17 -9 -31 -9 -13 0 -23 -3
-23 -7 3 -19 -2 -30 -13 -30 -7 0 -38 -3 -69 -7 -43 -5 -58 -4 -68 8 -7 8 -22
13 -34 10 -12 -2 -51 -6 -87 -9 -36 -2 -97 -11 -135 -19 -89 -19 -107 -22
-175 -35 -62 -12 -74 -14 -180 -36 -41 -9 -86 -17 -100 -20 -14 -2 -56 -10
-95 -19 -38 -9 -79 -17 -90 -19 -11 -1 -26 -6 -33 -11 -16 -10 -42 -1 -42 15
0 6 7 9 15 6 8 -4 17 -2 20 4 4 5 11 7 16 4 5 -4 9 -2 9 3 0 5 8 9 18 9 31 -2
132 14 136 22 3 3 19 8 37 9 18 1 38 7 45 13 7 6 17 8 22 5 5 -3 24 -1 43 4
33 10 74 19 114 25 11 2 79 15 150 28 130 25 179 33 245 41 19 3 51 8 70 11
19 4 51 8 70 10 19 2 71 8 115 14 44 6 103 13 130 16 28 2 68 7 90 9 22 2 76
7 120 11 44 4 98 9 120 11 57 5 244 16 282 16 20 0 30 4 26 11 -4 6 -1 7 7 2
7 -4 15 -3 19 3 3 6 40 14 81 17 109 10 123 12 140 18 36 14 197 13 212 -2z
m-1146 -163 c3 -4 -1 -5 -10 -4 -8 1 -18 5 -22 8 -3 4 1 5 10 4 8 -1 18 -5 22
-8z m2441 -34 c32 -8 85 -17 117 -20 32 -2 64 -9 71 -14 14 -12 27 -15 102
-25 120 -17 462 -103 698 -175 39 -12 81 -23 94 -26 13 -3 32 -9 41 -14 9 -5
28 -11 42 -14 57 -10 305 -98 360 -127 10 -5 25 -9 33 -9 9 0 14 -4 11 -8 -3
-5 3 -15 13 -23 16 -13 28 -18 56 -22 6 -1 13 -5 16 -10 3 -4 14 -9 25 -11 27
-6 181 -64 207 -78 12 -7 27 -11 33 -10 6 1 19 -8 30 -20 10 -12 15 -19 9 -16
-71 38 -408 154 -635 218 -41 12 -129 39 -195 59 -66 21 -154 48 -195 60 -41
12 -86 26 -100 31 -41 13 -104 31 -120 34 -8 2 -22 6 -30 9 -8 3 -40 11 -70
17 -30 6 -62 14 -70 17 -8 3 -19 7 -25 8 -92 23 -227 54 -255 60 -49 10 -80
16 -100 20 -14 3 -47 9 -75 14 -43 9 -89 17 -145 26 -8 1 -41 5 -72 10 -32 4
-58 12 -58 17 0 5 12 7 28 4 68 -14 113 -16 129 -8 14 8 12 12 -13 25 -37 21
-29 21 43 1z m-3552 -54 c-3 -5 -12 -10 -18 -10 -7 0 -6 4 3 10 19 12 23 12
15 0z m6856 -1327 c13 -16 12 -17 -3 -4 -17 13 -22 21 -14 21 2 0 10 -8 17
-17z m363 -282 c-2 -3 -12 3 -22 13 -16 17 -16 18 5 5 12 -7 20 -15 17 -18z
m334 -261 c7 -11 11 -20 9 -20 -2 0 -12 9 -22 20 -10 11 -14 20 -9 20 5 0 15
-9 22 -20z m72 -65 c14 -19 14 -19 -2 -6 -10 7 -18 18 -18 24 0 6 1 8 3 6 1
-2 9 -13 17 -24z m80 -75 c0 -5 -2 -10 -4 -10 -3 0 -8 5 -11 10 -3 6 -1 10 4
10 6 0 11 -4 11 -10z m45 -48 c-3 -3 -11 0 -18 7 -9 10 -8 11 6 5 10 -3 15 -9
12 -12z m425 -394 c19 -24 26 -37 17 -29 -19 15 -61 71 -54 71 2 0 19 -19 37
-42z m55 -68 c10 -11 16 -20 13 -20 -3 0 -13 9 -23 20 -10 11 -16 20 -13 20 3
0 13 -9 23 -20z m60 -76 c9 -15 12 -23 6 -20 -11 7 -35 46 -28 46 3 0 12 -12
22 -26z m53 -69 c29 -45 22 -45 -12 0 -15 19 -23 35 -19 35 4 0 18 -16 31 -35z
m62 -81 c0 -3 -7 -1 -15 6 -8 7 -15 17 -15 22 0 5 7 3 15 -6 8 -8 15 -18 15
-22z m55 -62 c-3 -3 -11 0 -18 7 -9 10 -8 11 6 5 10 -3 15 -9 12 -12z m39 -41
c-2 -3 -12 3 -22 13 -16 17 -16 18 5 5 12 -7 20 -15 17 -18z m41 -49 c-3 -3
-11 0 -18 7 -9 10 -8 11 6 5 10 -3 15 -9 12 -12z m56 -59 c13 -17 13 -17 -6
-3 -11 8 -22 16 -24 17 -2 2 0 3 6 3 6 0 17 -8 24 -17z m45 -55 l29 -33 -32
29 c-18 17 -33 31 -33 33 0 8 8 1 36 -29z m73 -92 c-3 -3 -11 5 -18 17 -13 21
-12 21 5 5 10 -10 16 -20 13 -22z m57 -63 c15 -20 23 -33 16 -29 -13 8 -56 66
-49 66 3 0 17 -17 33 -37z m45 -60 c13 -16 12 -17 -3 -4 -17 13 -22 21 -14 21
2 0 10 -8 17 -17z m203 -273 c32 -54 14 -31 -59 73 -30 42 -55 80 -55 84 0 9
80 -102 114 -157z m55 -116 c12 -20 20 -38 18 -40 -2 -2 -14 14 -26 36 -28 50
-21 53 8 4z m45 -70 c5 -14 4 -15 -9 -4 -17 14 -19 20 -6 20 5 0 12 -7 15 -16z
m31 -50 c9 -15 12 -23 6 -20 -11 7 -35 46 -28 46 3 0 12 -12 22 -26z m35 -46
c0 -6 8 -21 18 -32 16 -20 16 -20 -1 -7 -24 19 -41 51 -27 51 5 0 10 -5 10
-12z m44 -74 c5 -14 4 -15 -9 -4 -17 14 -19 20 -6 20 5 0 12 -7 15 -16z m45
-70 c12 -19 17 -33 12 -30 -5 3 -18 22 -30 42 -12 19 -17 33 -12 30 5 -3 18
-22 30 -42z m75 0 c9 -24 2 -26 -12 -4 -7 11 -8 20 -3 20 5 0 12 -7 15 -16z
m38 -69 c9 -20 9 -20 -6 -1 -9 11 -16 27 -15 35 0 14 1 14 6 1 3 -8 10 -24 15
-35z m-71 8 c13 -16 12 -17 -3 -4 -17 13 -22 21 -14 21 2 0 10 -8 17 -17z m32
-55 c6 -22 5 -22 -8 -4 -17 22 -20 40 -6 32 5 -3 11 -16 14 -28z m75 -14 c-4
-3 -12 5 -18 18 -12 22 -12 22 6 6 10 -10 15 -20 12 -24z m-47 -31 c13 -16 12
-17 -3 -4 -17 13 -22 21 -14 21 2 0 10 -8 17 -17z m84 -21 c-3 -3 1 -12 8 -20
8 -11 9 -14 0 -9 -6 4 -19 22 -27 39 -16 31 -16 31 4 13 11 -10 18 -20 15 -23z
m-50 -22 c10 -11 16 -20 13 -20 -3 0 -13 9 -23 20 -10 11 -16 20 -13 20 3 0
13 -9 23 -20z m117 -100 l17 -35 -19 24 c-11 13 -20 29 -20 36 0 7 -7 18 -15
25 -8 7 -15 17 -15 23 0 14 29 -27 52 -73z m38 -65 c14 -19 14 -19 -2 -6 -10
7 -18 18 -18 24 0 6 1 8 3 6 1 -2 9 -13 17 -24z m35 -65 c3 -5 1 -10 -4 -10
-6 0 -11 5 -11 10 0 6 2 10 4 10 3 0 8 -4 11 -10z m242 -742 c-3 -8 -6 -5 -6
6 -1 11 2 17 5 13 3 -3 4 -12 1 -19z m42 -97 c0 -14 -1 -14 -6 -1 -3 8 -10 24
-15 35 -9 20 -9 20 6 1 9 -11 16 -27 15 -35z m18 -27 c-3 -4 3 -24 14 -45 11
-22 17 -39 14 -39 -5 0 -45 75 -45 85 0 3 5 5 12 5 6 0 9 -3 5 -6z m54 -140
c5 -15 8 -29 5 -31 -2 -2 -8 10 -14 26 -13 38 -5 41 9 5z m26 -50 c-3 -4 3
-24 13 -45 28 -55 24 -63 -5 -9 -28 52 -30 60 -13 60 6 0 9 -3 5 -6z m51 -129
c-3 -3 -9 2 -12 12 -6 14 -5 15 5 6 7 -7 10 -15 7 -18z m267 -755 c3 -5 1 -10
-4 -10 -6 0 -11 5 -11 10 0 6 2 10 4 10 3 0 8 -4 11 -10z m135 -884 c0 -8 -4
-17 -8 -20 -4 -2 -8 4 -8 15 0 10 4 19 8 19 4 0 8 -6 8 -14z m-34 -62 c4 -21
7 -44 7 -51 0 -7 4 -10 9 -7 5 3 6 10 3 15 -4 5 -2 9 3 9 5 0 7 12 4 28 -2 15
-2 24 2 21 3 -3 8 -26 10 -50 6 -53 10 -71 18 -84 3 -6 9 -48 13 -95 4 -47 8
-87 10 -90 2 -3 0 -12 -6 -20 -6 -10 -9 -11 -9 -2 0 6 -4 12 -9 12 -6 0 -8
-10 -5 -22 2 -13 6 -41 9 -63 2 -22 7 -62 11 -90 3 -27 5 -57 4 -65 -6 -65 -3
-610 4 -610 5 0 3 -6 -3 -14 -9 -10 -9 -16 -1 -21 6 -4 7 -12 2 -18 -7 -10 -9
-32 -3 -39 10 -13 14 -103 14 -258 -1 -250 -4 -290 -18 -290 -7 0 -16 -10 -22
-22 -7 -17 -9 -9 -9 40 1 34 -3 62 -9 62 -5 0 -4 5 2 11 8 8 8 20 3 35 -5 13
-7 51 -4 86 3 35 7 133 9 218 8 289 10 320 15 320 3 0 5 16 6 35 0 19 -2 35
-5 35 -3 0 -6 66 -6 148 0 81 -2 151 -4 156 -7 15 -7 136 0 136 3 0 6 7 6 15
0 8 -3 15 -6 15 -4 0 -7 15 -8 33 -5 90 -12 147 -19 159 -5 7 -10 20 -11 28
-6 39 -15 109 -19 145 -2 22 -6 56 -9 75 -8 52 -8 72 0 98 10 29 13 25 21 -24z
m-109 -1511 c-3 -10 -5 -2 -5 17 0 19 2 27 5 18 2 -10 2 -26 0 -35z m-7 -69
c-5 -19 -12 -39 -16 -42 -4 -4 -4 1 -1 11 4 10 7 32 7 48 0 17 4 28 9 25 5 -3
5 -22 1 -42z m-34 -113 c-1 -22 -3 -42 -6 -45 -5 -4 -5 71 -1 82 5 11 7 -4 7
-37z m8 -69 c-5 -4 -10 -27 -10 -50 1 -24 -2 -46 -5 -48 -5 -3 -5 93 0 104 0
1 7 2 14 2 8 0 8 -3 1 -8z m-7 -127 c0 -8 -4 -15 -9 -15 -10 0 -11 14 -1 23 9
10 10 9 10 -8z m-6 -67 c-4 -35 -6 -38 -9 -15 -3 26 3 57 10 57 2 0 1 -19 -1
-42z m-247 -902 c-3 -15 -8 -25 -11 -23 -2 3 -1 17 3 31 3 15 8 25 11 23 2 -3
1 -17 -3 -31z m-11 -56 c3 -11 -2 -25 -11 -32 -13 -11 -14 -11 -7 2 5 8 8 23
7 33 -4 23 4 22 11 -3z m-28 -105 c-7 -28 -14 -43 -14 -35 -1 19 19 93 24 88
2 -2 -2 -26 -10 -53z m25 -54 c0 -4 -11 -39 -25 -77 -14 -38 -25 -70 -25 -72
0 -2 -4 -1 -9 2 -5 3 -16 -12 -25 -34 -9 -22 -17 -40 -20 -40 -6 0 48 185 56
188 4 2 4 10 1 18 -4 10 0 12 11 8 9 -3 16 -1 16 5 0 6 5 11 10 11 6 0 10 -4
10 -9z m-124 -423 c-1 -7 -13 -44 -26 -83 -13 -38 -25 -73 -26 -77 -1 -5 -2
-9 -4 -10 -1 -2 -3 -10 -5 -18 -2 -8 -13 -42 -25 -75 -11 -33 -22 -64 -23 -70
-1 -5 -6 -16 -10 -22 -5 -7 -10 -22 -12 -34 -9 -47 -135 -312 -135 -284 0 21
-30 -37 -87 -170 -64 -148 -78 -185 -75 -197 1 -5 -3 -8 -8 -8 -13 0 -13 15 0
38 5 9 26 58 46 107 41 104 52 129 89 210 15 33 31 71 35 85 8 26 73 206 106
295 11 28 23 53 27 56 5 3 8 9 7 13 -2 10 62 146 70 146 5 0 42 73 46 93 3 15
4 17 8 17 2 0 3 -6 2 -12z m236 -140 c-8 -8 -9 -4 -5 13 4 13 8 18 11 10 2 -7
-1 -18 -6 -23z m-17 -68 c-7 -28 -13 -51 -13 -53 -1 -1 -5 -15 -11 -30 -6 -16
-11 -32 -11 -36 0 -4 -16 -45 -35 -92 -48 -113 -37 -66 24 111 28 80 51 146
51 148 0 1 2 2 4 2 2 0 -2 -23 -9 -50z m-105 -56 c0 -3 -4 -13 -9 -22 -5 -9
-12 -37 -15 -62 -7 -51 -11 -69 -18 -90 -12 -37 -48 -159 -53 -180 0 -3 -6
-15 -13 -27 -7 -12 -11 -26 -10 -30 1 -4 -3 -18 -10 -31 -7 -12 -10 -27 -7
-32 3 -5 1 -11 -5 -15 -5 -3 -10 -18 -10 -32 l0 -25 20 23 20 24 -9 -25 c-5
-14 -17 -43 -26 -65 -10 -22 -21 -51 -26 -64 -16 -42 -20 -16 -4 29 34 97 5
103 -39 7 -54 -116 -82 -192 -92 -246 -5 -23 -39 -111 -72 -181 -9 -19 -50
-89 -90 -155 -41 -66 -75 -129 -77 -140 -4 -31 -16 -56 -52 -106 -18 -26 -33
-51 -33 -58 0 -6 -4 -11 -9 -11 -5 0 -19 -25 -32 -55 -21 -50 -29 -60 -51 -56
-4 0 -5 -6 -1 -15 3 -8 2 -14 -3 -12 -13 4 -70 -58 -85 -93 -10 -26 -10 -32 2
-40 10 -6 11 -11 3 -16 -6 -5 -35 -41 -64 -82 -29 -41 -63 -86 -76 -100 -14
-14 -36 -48 -50 -76 -23 -45 -25 -46 -19 -16 4 19 12 39 17 45 13 15 100 153
124 196 10 19 23 38 27 41 12 9 11 21 -3 29 -8 5 9 39 53 107 90 139 214 346
222 372 3 11 11 21 16 21 5 0 9 9 9 19 0 11 4 21 9 23 6 2 44 70 86 153 42 82
81 155 87 162 6 7 8 13 5 13 -3 0 30 70 74 155 43 85 76 155 73 155 -3 0 2 10
10 22 9 12 16 32 16 45 0 12 5 25 10 28 6 4 8 10 5 15 -3 5 -1 11 5 15 6 4 8
11 4 16 -3 6 -12 5 -22 -3 -13 -11 -13 -9 1 13 10 14 14 29 10 34 -5 4 -2 5 5
1 7 -5 11 -15 7 -25 -5 -12 -3 -13 5 -5 9 9 9 17 1 32 -8 15 -8 23 1 28 6 4 8
3 4 -4 -3 -6 -2 -13 3 -16 5 -4 7 6 5 22 -3 16 6 57 20 93 35 92 76 217 79
241 4 24 47 54 47 32z m-15671 -292 c0 -24 -1 -25 -9 -7 -12 28 -12 47 0 40 6
-3 10 -18 9 -33z m15644 -17 c-3 -9 -8 -14 -10 -11 -3 3 -2 9 2 15 9 16 15 13
8 -4z m-173 -175 c-6 -11 -13 -20 -16 -20 -2 0 0 9 6 20 6 11 13 20 16 20 2 0
0 -9 -6 -20z m110 16 c0 -2 -7 -9 -15 -16 -13 -11 -14 -10 -9 4 5 14 24 23 24
12z m-420 -306 c-22 -40 -40 -77 -40 -81 0 -5 -18 -21 -40 -35 -22 -15 -40
-31 -40 -37 0 -6 -2 -8 -5 -5 -6 6 50 103 73 126 10 11 12 11 12 0 0 -7 6 -4
12 7 38 71 60 106 64 102 2 -2 -14 -37 -36 -77z m-130 -180 c0 -5 -5 -10 -11
-10 -5 0 -7 5 -4 10 3 6 8 10 11 10 2 0 4 -4 4 -10z m-60 -104 c-22 -43 -37
-82 -35 -87 3 -4 -1 -10 -7 -12 -8 -3 -5 -6 5 -6 11 -1 21 8 24 19 3 11 9 20
13 20 4 0 15 17 23 38 9 22 22 39 31 39 20 0 20 3 -6 -54 -56 -121 -171 -322
-180 -317 -6 4 -6 9 -1 13 5 3 15 25 23 49 7 23 16 42 20 42 4 0 7 7 7 15 0
18 -9 19 -26 3 -8 -9 -7 1 4 27 9 22 19 47 22 55 12 35 115 241 118 238 2 -2
-14 -39 -35 -82z m-141 -132 c-86 -183 -153 -304 -169 -304 -4 0 -15 -19 -25
-42 -9 -24 -15 -43 -14 -43 2 0 -4 -11 -14 -25 -9 -13 -17 -32 -17 -42 0 -10
-4 -18 -8 -18 -4 0 -13 -15 -20 -32 -7 -18 -36 -63 -64 -99 -29 -36 -63 -79
-76 -95 -12 -16 -3 3 20 41 23 39 46 72 50 73 4 2 8 14 8 27 0 42 -48 18 -70
-35 -6 -16 -18 -31 -25 -34 -8 -2 0 15 16 39 16 23 29 48 29 55 0 6 5 8 10 5
6 -3 14 4 19 17 5 13 18 30 29 39 10 9 37 43 58 75 21 33 42 61 46 62 5 2 8 9
8 16 0 6 28 54 61 106 69 105 132 211 169 282 44 85 32 43 -21 -68z m267 -59
c-9 -13 -16 -31 -16 -40 0 -8 -4 -15 -10 -15 -5 0 -10 3 -10 8 0 11 39 72 46
72 3 0 -1 -11 -10 -25z m-14571 -305 c-3 -5 -1 -10 6 -10 7 0 10 -3 6 -6 -9
-9 -28 6 -22 17 4 5 8 9 11 9 3 0 2 -4 -1 -10z m14131 -427 c-53 -77 -82 -110
-90 -102 -5 4 137 188 142 184 1 -1 -22 -38 -52 -82z m-316 63 c0 -2 -8 -10
-17 -17 -16 -13 -17 -12 -4 4 13 16 21 21 21 13z m172 -229 c-12 -13 -22 -30
-22 -39 0 -9 -8 -22 -17 -29 -15 -11 -16 -11 -5 1 6 8 12 21 12 29 0 14 37 61
48 61 3 0 -4 -10 -16 -23z m-13447 -203 c42 -53 60 -74 117 -135 57 -63 120
-150 93 -129 -11 8 -23 19 -27 25 -4 5 -11 6 -15 1 -4 -4 0 -14 10 -21 12 -8
14 -15 8 -20 -6 -3 -11 -3 -11 2 0 4 -10 20 -23 35 -72 87 -171 221 -219 299
l-41 64 39 -40 c21 -22 52 -58 69 -81z m13115 72 c0 -2 -8 -10 -17 -17 -16
-13 -17 -12 -4 4 13 16 21 21 21 13z m-12884 -87 c16 -16 22 -28 14 -24 -13 5
-56 55 -47 55 2 0 16 -14 33 -31z m12822 1 c-7 -10 -14 -17 -17 -15 -4 4 18
35 25 35 2 0 -1 -9 -8 -20z m312 -24 c0 -2 -8 -10 -17 -17 -16 -13 -17 -12 -4
4 13 16 21 21 21 13z m-12971 -156 c19 -25 1 -9 -40 34 -41 43 -75 82 -77 86
-6 16 85 -78 117 -120z m12721 116 c0 -2 -8 -10 -17 -17 -16 -13 -17 -12 -4 4
13 16 21 21 21 13z m-112 -116 c-7 -11 -17 -20 -22 -20 -5 0 -1 9 9 20 10 11
20 20 22 20 2 0 -2 -9 -9 -20z m-38 -33 c0 -2 -10 -12 -22 -23 l-23 -19 19 23
c18 21 26 27 26 19z m203 -12 c-3 -9 -8 -14 -10 -11 -3 3 -2 9 2 15 9 16 15
13 8 -4z m-12698 -35 l30 -35 -32 29 c-18 17 -33 34 -33 40 0 5 1 7 3 5 1 -2
16 -20 32 -39z m-261 -26 c3 -8 2 -12 -4 -9 -6 3 -10 10 -10 16 0 14 7 11 14
-7z m12875 -27 c-13 -13 -26 -21 -29 -19 -5 4 38 42 48 42 3 0 -6 -10 -19 -23z
m-12558 -4 c13 -16 12 -17 -3 -4 -10 7 -18 15 -18 17 0 8 8 3 21 -13z m-210
-40 c13 -16 12 -17 -3 -4 -10 7 -18 15 -18 17 0 8 8 3 21 -13z m12729 3 c0 -2
-8 -10 -17 -17 -16 -13 -17 -12 -4 4 13 16 21 21 21 13z m-260 -39 c0 -2 -10
-12 -22 -23 l-23 -19 19 23 c18 21 26 27 26 19z m229 0 c-2 -1 -13 -9 -24 -17
-19 -14 -19 -14 -6 3 7 9 18 17 24 17 6 0 8 -1 6 -3z m-39 -41 c0 -2 -8 -10
-17 -17 -16 -13 -17 -12 -4 4 13 16 21 21 21 13z m-240 -15 c0 -5 -7 -12 -16
-15 -14 -5 -15 -4 -4 9 14 17 20 19 20 6z m-30 -35 c0 -2 -7 -7 -16 -10 -8 -3
-12 -2 -9 4 6 10 25 14 25 6z m-12289 -43 c13 -16 12 -17 -3 -4 -10 7 -18 15
-18 17 0 8 8 3 21 -13z m12193 -48 c-9 -14 -20 -25 -25 -25 -5 0 1 11 13 25
12 14 23 25 25 25 2 0 -4 -11 -13 -25z m-12070 -74 c-3 -3 -15 6 -27 18 l-22
24 27 -19 c14 -10 24 -21 22 -23z m12016 19 c0 -5 -5 -10 -11 -10 -5 0 -7 5
-4 10 3 6 8 10 11 10 2 0 4 -4 4 -10z m-70 -63 c0 -2 -12 -14 -27 -28 l-28
-24 24 28 c23 25 31 32 31 24z m54 -10 c-2 -7 -14 -19 -27 -26 -21 -13 -21
-12 2 13 27 29 33 32 25 13z m-44 -51 c0 -2 -7 -7 -16 -10 -8 -3 -12 -2 -9 4
6 10 25 14 25 6z m-11769 -33 c13 -16 12 -17 -3 -4 -10 7 -18 15 -18 17 0 8 8
3 21 -13z m12009 -27 c0 -2 -8 -10 -17 -17 -16 -13 -17 -12 -4 4 13 16 21 21
21 13z m-149 -49 c-10 -9 -11 -8 -5 6 3 10 9 15 12 12 3 -3 0 -11 -7 -18z
m-271 10 c0 -2 -10 -12 -22 -23 l-23 -19 19 23 c18 21 26 27 26 19z m351 -40
c-10 -9 -11 -8 -5 6 3 10 9 15 12 12 3 -3 0 -11 -7 -18z m-401 -11 c0 -2 -8
-10 -17 -17 -16 -13 -17 -12 -4 4 13 16 21 21 21 13z m-11425 -36 c3 -6 -1 -7
-9 -4 -18 7 -21 14 -7 14 6 0 13 -4 16 -10z m45 -45 c13 -14 21 -25 18 -25 -2
0 -15 11 -28 25 -13 14 -21 25 -18 25 2 0 15 -11 28 -25z m11580 11 c0 -2 -8
-10 -17 -17 -16 -13 -17 -12 -4 4 13 16 21 21 21 13z m-11496 -92 c3 -8 2 -12
-4 -9 -6 3 -10 10 -10 16 0 14 7 11 14 -7z m11116 -4 c0 -5 -5 -10 -11 -10 -5
0 -7 5 -4 10 3 6 8 10 11 10 2 0 4 -4 4 -10z m-11079 -27 c13 -16 12 -17 -3
-4 -17 13 -22 21 -14 21 2 0 10 -8 17 -17z m11032 -17 c-10 -13 -20 -22 -22
-20 -4 4 29 44 36 44 2 0 -4 -11 -14 -24z m-53 -51 c-7 -8 -17 -15 -23 -15 -6
0 -2 7 9 15 25 19 30 19 14 0z m250 -18 c0 -2 -11 -14 -25 -27 -14 -13 -25
-21 -25 -17 0 3 10 15 22 27 21 19 28 24 28 17z m-11015 -97 c10 -11 16 -20
13 -20 -3 0 -13 9 -23 20 -10 11 -16 20 -13 20 3 0 13 -9 23 -20z m10605 -24
c0 -2 -8 -10 -17 -17 -16 -13 -17 -12 -4 4 13 16 21 21 21 13z m365 -6 c-3 -5
-12 -10 -18 -10 -7 0 -6 4 3 10 19 12 23 12 15 0z m-425 -54 c0 -2 -7 -7 -16
-10 -8 -3 -12 -2 -9 4 6 10 25 14 25 6z m-140 -106 c-8 -5 -19 -10 -25 -10 -5
0 -3 5 5 10 8 5 20 10 25 10 6 0 3 -5 -5 -10z m-330 -103 c0 -2 -10 -12 -22
-23 l-23 -19 19 23 c18 21 26 27 26 19z m60 -17 c0 -5 -5 -10 -11 -10 -5 0 -7
5 -4 10 3 6 8 10 11 10 2 0 4 -4 4 -10z m-130 -54 c0 -2 -8 -10 -17 -17 -16
-13 -17 -12 -4 4 13 16 21 21 21 13z m-70 -60 c0 -2 -8 -10 -17 -17 -16 -13
-17 -12 -4 4 13 16 21 21 21 13z m-423 -281 c0 -8 -4 -15 -9 -15 -10 0 -11 14
-1 23 9 10 10 9 10 -8z m-7340 -480 c0 -8 -4 -12 -9 -9 -5 3 -6 10 -3 15 9 13
12 11 12 -6z m4495 -742 c-6 -2 -10 -8 -8 -12 2 -3 -14 -4 -37 -2 -41 5 -41 5
-12 12 35 8 76 10 57 2z"/>
<path d="M16819 9349 c0 -2 -2 -12 -4 -21 -2 -10 0 -18 5 -18 4 0 8 -11 8 -25
0 -15 -5 -22 -12 -18 -6 3 -4 -2 4 -13 9 -10 15 -31 14 -46 0 -15 5 -29 13
-32 10 -4 11 -1 5 12 -5 9 -8 26 -6 37 1 11 -2 23 -9 27 -9 6 -9 8 -1 8 9 0 9
11 3 38 -4 20 -8 39 -8 40 1 5 -11 16 -12 11z"/>
<path d="M15990 5381 c0 -6 4 -13 10 -16 6 -3 7 1 4 9 -7 18 -14 21 -14 7z"/>
<path d="M15976 5343 c-6 -14 -5 -15 5 -6 7 7 10 15 7 18 -3 3 -9 -2 -12 -12z"/>
<path d="M4726 16133 c-4 -4 -13 -8 -21 -9 -32 -5 -85 -26 -85 -35 0 -5 -6 -9
-14 -9 -8 0 -16 -4 -18 -8 -5 -13 -160 -86 -187 -89 -35 -3 -75 -21 -168 -74
-45 -26 -85 -44 -89 -41 -4 4 -4 -6 -2 -21 4 -20 2 -27 -8 -23 -7 3 -18 -2
-24 -9 -7 -8 -16 -12 -21 -9 -5 3 -9 0 -9 -5 0 -6 -7 -11 -15 -11 -8 0 -15 -4
-15 -9 0 -13 51 -6 60 9 4 7 13 9 19 6 6 -4 11 -2 11 4 0 6 4 9 9 6 5 -4 11
-3 13 2 3 8 58 40 186 110 35 19 77 36 94 39 27 4 104 45 118 62 3 4 37 22 75
40 80 39 120 67 107 75 -5 3 -12 2 -16 -1z"/>
<path d="M4002 15753 c-18 -9 -32 -19 -32 -23 0 -4 -15 -10 -32 -14 -23 -5
-29 -9 -20 -15 10 -6 6 -10 -15 -15 -15 -4 -38 -17 -50 -28 -13 -12 -23 -18
-23 -14 0 4 -6 1 -14 -6 -10 -9 -11 -15 -2 -20 16 -11 28 -10 21 2 -6 9 8 14
28 11 7 -1 11 15 8 33 -1 5 5 4 13 -4 12 -9 16 -9 16 -1 0 7 5 9 10 6 6 -3 10
-3 10 2 0 8 59 46 73 47 5 1 14 8 20 16 7 8 19 16 27 18 24 5 31 18 12 19 -10
1 -32 -6 -50 -14z"/>
<path d="M3358 15338 c-62 -45 -113 -96 -104 -105 4 -4 11 -2 15 6 5 7 12 13
17 12 9 0 22 9 100 67 49 37 50 38 30 45 -8 3 -34 -8 -58 -25z"/>
<path d="M2981 15030 c-40 -38 -71 -75 -69 -83 3 -15 -101 -104 -129 -109 -20
-3 -44 -25 -243 -218 -134 -130 -140 -138 -130 -180 0 -3 7 4 15 14 8 11 15
16 15 11 0 -5 8 2 17 15 9 14 41 48 72 75 82 75 231 228 231 237 0 4 12 8 26
8 28 0 88 45 196 145 31 29 65 59 75 66 22 17 27 56 9 75 -11 10 -26 1 -85
-56z"/>
<path d="M2276 14355 c-31 -30 -55 -55 -52 -55 2 0 -17 -22 -43 -48 -41 -44
-111 -122 -196 -220 -16 -19 -38 -43 -47 -53 -10 -11 -16 -19 -13 -19 4 0 -22
-32 -67 -81 -10 -10 -18 -21 -18 -24 0 -3 -8 -13 -17 -23 -28 -30 -113 -138
-178 -228 -11 -15 -26 -33 -33 -41 -7 -7 -11 -13 -8 -13 6 0 -23 -36 -52 -66
-7 -7 -13 -17 -14 -21 -1 -7 -45 -70 -58 -83 -7 -7 -29 -42 -37 -60 -4 -8 -15
-24 -26 -35 -10 -11 -25 -32 -33 -47 -13 -25 -13 -28 1 -28 9 0 13 5 10 10 -3
6 1 10 10 10 9 0 14 4 11 9 -3 4 3 16 14 26 11 10 20 23 20 29 0 7 8 19 18 28
21 20 28 30 67 88 17 24 36 51 42 60 7 8 37 49 67 90 31 41 60 80 66 87 5 7
10 16 10 22 0 5 7 11 15 15 8 3 15 13 15 22 0 10 3 14 7 11 3 -4 15 5 25 20
21 34 57 79 81 104 9 11 17 24 17 30 0 5 5 7 10 4 6 -3 10 0 10 7 0 7 18 32
40 56 22 23 40 44 40 47 0 3 15 21 33 39 37 40 80 90 79 93 -1 1 17 20 38 41
22 21 40 44 40 51 0 7 5 9 10 6 6 -3 10 -2 10 3 0 5 21 31 46 57 25 26 43 54
40 61 -3 7 0 11 7 9 17 -6 42 16 49 43 4 12 5 22 4 22 -2 0 -28 -25 -60 -55z"/>
<path d="M15233 3376 c4 -10 3 -15 -3 -11 -6 4 -21 -6 -35 -22 -13 -15 -38
-44 -54 -63 -29 -33 -40 -60 -23 -60 13 1 36 24 72 70 19 25 40 51 47 58 16
17 16 29 1 38 -8 5 -9 2 -5 -10z"/>
</g>
</svg>
